# xmcd CD database file
#
# Track frame offsets:
#	150
#	25847
#	44376
#	59475
#	74908
#	92685
#	110667
#	121488
#	141954
#	153211
#	175805
#	191687
#
# Disc length: 2818 seconds
#
# Revision: 0
# Processed by: cddbd v1.5.2PL0 Copyright (c) Steve Scherf et al.
# Submitted via: CDex 1.70beta2
#
DISCID=b00b000c
DTITLE=Plínio Oliveira - O Evangélio Segundo a Poesia
DYEAR=1900
DGENRE=New Age
TTITLE0=Jóia Rara
TTITLE1=Os Girassóis
TTITLE2=Outro Mundo
TTITLE3=Águas Futuras
TTITLE4=Quando Amei
TTITLE5=Ser Azul
TTITLE6=Quem Me Fará Feliz
TTITLE7=Contemplação
TTITLE8=Serrá Que Você Vai Lembrar
TTITLE9=Outra Explicação
TTITLE10=O Amor
TTITLE11=O Evangélio Segundo a Poesia
EXTD=
EXTT0=
EXTT1=
EXTT2=
EXTT3=
EXTT4=
EXTT5=
EXTT6=
EXTT7=
EXTT8=
EXTT9=
EXTT10=
EXTT11=
PLAYORDER=
